<svg version="1.1" viewBox="0.0 0.0 600.0 371.0" fill="none" stroke="none" stroke-linecap="square" stroke-miterlimit="10" width="600" height="371" xmlns:xlink="http://www.w3.org/1999/xlink" xmlns="http://www.w3.org/2000/svg"><path fill="#ffffff" d="M0 0L600.0 0L600.0 371.0L0 371.0L0 0Z" fill-rule="nonzero"/><path stroke="#333333" stroke-width="1.0" stroke-linecap="butt" d="M45.5 345.5L581.5 345.5" fill-rule="nonzero"/><path stroke="#cccccc" stroke-width="1.0" stroke-linecap="butt" d="M45.5 281.5L581.5 281.5" fill-rule="nonzero"/><path stroke="#cccccc" stroke-width="1.0" stroke-linecap="butt" d="M45.5 217.5L581.5 217.5" fill-rule="nonzero"/><path stroke="#cccccc" stroke-width="1.0" stroke-linecap="butt" d="M45.5 153.5L581.5 153.5" fill-rule="nonzero"/><path stroke="#cccccc" stroke-width="1.0" stroke-linecap="butt" d="M45.5 89.5L581.5 89.5" fill-rule="nonzero"/><path stroke="#cccccc" stroke-width="1.0" stroke-linecap="butt" d="M45.5 25.5L581.5 25.5" fill-rule="nonzero"/><clipPath id="id_0"><path d="M45.55 25.55L581.45 25.55L581.45 345.45L45.55 345.45L45.55 25.55Z" clip-rule="nonzero"/></clipPath><path stroke="#000000" stroke-width="2.0" stroke-linecap="butt" stroke-opacity="0.0" clip-path="url(#id_0)" d="M67.0 345.0L53.0 345.0L53.0 269.0L67.0 269.0Z" fill-rule="nonzero"/><path fill="#4285f4" clip-path="url(#id_0)" d="M67.0 345.0L53.0 345.0L53.0 269.0L67.0 269.0Z" fill-rule="nonzero"/><path stroke="#000000" stroke-width="2.0" stroke-linecap="butt" stroke-opacity="0.0" clip-path="url(#id_0)" d="M88.0 345.0L74.0 345.0L74.0 345.0L88.0 345.0Z" fill-rule="nonzero"/><path fill="#4285f4" clip-path="url(#id_0)" d="M88.0 345.0L74.0 345.0L74.0 345.0L88.0 345.0Z" fill-rule="nonzero"/><path stroke="#000000" stroke-width="2.0" stroke-linecap="butt" stroke-opacity="0.0" clip-path="url(#id_0)" d="M109.0 345.0L95.0 345.0L95.0 345.0L109.0 345.0Z" fill-rule="nonzero"/><path fill="#4285f4" clip-path="url(#id_0)" d="M109.0 345.0L95.0 345.0L95.0 345.0L109.0 345.0Z" fill-rule="nonzero"/><path stroke="#000000" stroke-width="2.0" stroke-linecap="butt" stroke-opacity="0.0" clip-path="url(#id_0)" d="M130.0 345.0L116.0 345.0L116.0 345.0L130.0 345.0Z" fill-rule="nonzero"/><path fill="#4285f4" clip-path="url(#id_0)" d="M130.0 345.0L116.0 345.0L116.0 345.0L130.0 345.0Z" fill-rule="nonzero"/><path stroke="#000000" stroke-width="2.0" stroke-linecap="butt" stroke-opacity="0.0" clip-path="url(#id_0)" d="M151.0 345.0L137.0 345.0L137.0 281.0L151.0 281.0Z" fill-rule="nonzero"/><path fill="#4285f4" clip-path="url(#id_0)" d="M151.0 345.0L137.0 345.0L137.0 281.0L151.0 281.0Z" fill-rule="nonzero"/><path stroke="#000000" stroke-width="2.0" stroke-linecap="butt" stroke-opacity="0.0" clip-path="url(#id_0)" d="M173.0 345.0L159.0 345.0L159.0 345.0L173.0 345.0Z" fill-rule="nonzero"/><path fill="#4285f4" clip-path="url(#id_0)" d="M173.0 345.0L159.0 345.0L159.0 345.0L173.0 345.0Z" fill-rule="nonzero"/><path stroke="#000000" stroke-width="2.0" stroke-linecap="butt" stroke-opacity="0.0" clip-path="url(#id_0)" d="M194.0 345.0L180.0 345.0L180.0 345.0L194.0 345.0Z" fill-rule="nonzero"/><path fill="#4285f4" clip-path="url(#id_0)" d="M194.0 345.0L180.0 345.0L180.0 345.0L194.0 345.0Z" fill-rule="nonzero"/><path stroke="#000000" stroke-width="2.0" stroke-linecap="butt" stroke-opacity="0.0" clip-path="url(#id_0)" d="M215.0 345.0L201.0 345.0L201.0 345.0L215.0 345.0Z" fill-rule="nonzero"/><path fill="#4285f4" clip-path="url(#id_0)" d="M215.0 345.0L201.0 345.0L201.0 345.0L215.0 345.0Z" fill-rule="nonzero"/><path stroke="#000000" stroke-width="2.0" stroke-linecap="butt" stroke-opacity="0.0" clip-path="url(#id_0)" d="M236.0 345.0L222.0 345.0L222.0 281.0L236.0 281.0Z" fill-rule="nonzero"/><path fill="#4285f4" clip-path="url(#id_0)" d="M236.0 345.0L222.0 345.0L222.0 281.0L236.0 281.0Z" fill-rule="nonzero"/><path stroke="#000000" stroke-width="2.0" stroke-linecap="butt" stroke-opacity="0.0" clip-path="url(#id_0)" d="M257.0 345.0L243.0 345.0L243.0 345.0L257.0 345.0Z" fill-rule="nonzero"/><path fill="#4285f4" clip-path="url(#id_0)" d="M257.0 345.0L243.0 345.0L243.0 345.0L257.0 345.0Z" fill-rule="nonzero"/><path stroke="#000000" stroke-width="2.0" stroke-linecap="butt" stroke-opacity="0.0" clip-path="url(#id_0)" d="M278.0 345.0L264.0 345.0L264.0 345.0L278.0 345.0Z" fill-rule="nonzero"/><path fill="#4285f4" clip-path="url(#id_0)" d="M278.0 345.0L264.0 345.0L264.0 345.0L278.0 345.0Z" fill-rule="nonzero"/><path stroke="#000000" stroke-width="2.0" stroke-linecap="butt" stroke-opacity="0.0" clip-path="url(#id_0)" d="M299.0 345.0L285.0 345.0L285.0 345.0L299.0 345.0Z" fill-rule="nonzero"/><path fill="#4285f4" clip-path="url(#id_0)" d="M299.0 345.0L285.0 345.0L285.0 345.0L299.0 345.0Z" fill-rule="nonzero"/><path stroke="#000000" stroke-width="2.0" stroke-linecap="butt" stroke-opacity="0.0" clip-path="url(#id_0)" d="M321.0 345.0L307.0 345.0L307.0 345.0L321.0 345.0Z" fill-rule="nonzero"/><path fill="#4285f4" clip-path="url(#id_0)" d="M321.0 345.0L307.0 345.0L307.0 345.0L321.0 345.0Z" fill-rule="nonzero"/><path stroke="#000000" stroke-width="2.0" stroke-linecap="butt" stroke-opacity="0.0" clip-path="url(#id_0)" d="M342.0 345.0L328.0 345.0L328.0 345.0L342.0 345.0Z" fill-rule="nonzero"/><path fill="#4285f4" clip-path="url(#id_0)" d="M342.0 345.0L328.0 345.0L328.0 345.0L342.0 345.0Z" fill-rule="nonzero"/><path stroke="#000000" stroke-width="2.0" stroke-linecap="butt" stroke-opacity="0.0" clip-path="url(#id_0)" d="M363.0 345.0L349.0 345.0L349.0 345.0L363.0 345.0Z" fill-rule="nonzero"/><path fill="#4285f4" clip-path="url(#id_0)" d="M363.0 345.0L349.0 345.0L349.0 345.0L363.0 345.0Z" fill-rule="nonzero"/><path stroke="#000000" stroke-width="2.0" stroke-linecap="butt" stroke-opacity="0.0" clip-path="url(#id_0)" d="M384.0 345.0L370.0 345.0L370.0 320.0L384.0 320.0Z" fill-rule="nonzero"/><path fill="#4285f4" clip-path="url(#id_0)" d="M384.0 345.0L370.0 345.0L370.0 320.0L384.0 320.0Z" fill-rule="nonzero"/><path stroke="#000000" stroke-width="2.0" stroke-linecap="butt" stroke-opacity="0.0" clip-path="url(#id_0)" d="M405.0 345.0L391.0 345.0L391.0 345.0L405.0 345.0Z" fill-rule="nonzero"/><path fill="#4285f4" clip-path="url(#id_0)" d="M405.0 345.0L391.0 345.0L391.0 345.0L405.0 345.0Z" fill-rule="nonzero"/><path stroke="#000000" stroke-width="2.0" stroke-linecap="butt" stroke-opacity="0.0" clip-path="url(#id_0)" d="M426.0 345.0L412.0 345.0L412.0 345.0L426.0 345.0Z" fill-rule="nonzero"/><path fill="#4285f4" clip-path="url(#id_0)" d="M426.0 345.0L412.0 345.0L412.0 345.0L426.0 345.0Z" fill-rule="nonzero"/><path stroke="#000000" stroke-width="2.0" stroke-linecap="butt" stroke-opacity="0.0" clip-path="url(#id_0)" d="M447.0 345.0L433.0 345.0L433.0 345.0L447.0 345.0Z" fill-rule="nonzero"/><path fill="#4285f4" clip-path="url(#id_0)" d="M447.0 345.0L433.0 345.0L433.0 345.0L447.0 345.0Z" fill-rule="nonzero"/><path stroke="#000000" stroke-width="2.0" stroke-linecap="butt" stroke-opacity="0.0" clip-path="url(#id_0)" d="M468.0 345.0L454.0 345.0L454.0 333.0L468.0 333.0Z" fill-rule="nonzero"/><path fill="#4285f4" clip-path="url(#id_0)" d="M468.0 345.0L454.0 345.0L454.0 333.0L468.0 333.0Z" fill-rule="nonzero"/><path stroke="#000000" stroke-width="2.0" stroke-linecap="butt" stroke-opacity="0.0" clip-path="url(#id_0)" d="M490.0 345.0L476.0 345.0L476.0 345.0L490.0 345.0Z" fill-rule="nonzero"/><path fill="#4285f4" clip-path="url(#id_0)" d="M490.0 345.0L476.0 345.0L476.0 345.0L490.0 345.0Z" fill-rule="nonzero"/><path stroke="#000000" stroke-width="2.0" stroke-linecap="butt" stroke-opacity="0.0" clip-path="url(#id_0)" d="M511.0 345.0L497.0 345.0L497.0 345.0L511.0 345.0Z" fill-rule="nonzero"/><path fill="#4285f4" clip-path="url(#id_0)" d="M511.0 345.0L497.0 345.0L497.0 345.0L511.0 345.0Z" fill-rule="nonzero"/><path stroke="#000000" stroke-width="2.0" stroke-linecap="butt" stroke-opacity="0.0" clip-path="url(#id_0)" d="M532.0 345.0L518.0 345.0L518.0 345.0L532.0 345.0Z" fill-rule="nonzero"/><path fill="#4285f4" clip-path="url(#id_0)" d="M532.0 345.0L518.0 345.0L518.0 345.0L532.0 345.0Z" fill-rule="nonzero"/><path stroke="#000000" stroke-width="2.0" stroke-linecap="butt" stroke-opacity="0.0" clip-path="url(#id_0)" d="M553.0 345.0L539.0 345.0L539.0 217.0L553.0 217.0Z" fill-rule="nonzero"/><path fill="#4285f4" clip-path="url(#id_0)" d="M553.0 345.0L539.0 345.0L539.0 217.0L553.0 217.0Z" fill-rule="nonzero"/><path stroke="#000000" stroke-width="2.0" stroke-linecap="butt" stroke-opacity="0.0" clip-path="url(#id_0)" d="M67.0 269.0L53.0 269.0L53.0 217.0L67.0 217.0Z" fill-rule="nonzero"/><path fill="#ea4335" clip-path="url(#id_0)" d="M67.0 269.0L53.0 269.0L53.0 217.0L67.0 217.0Z" fill-rule="nonzero"/><path stroke="#000000" stroke-width="2.0" stroke-linecap="butt" stroke-opacity="0.0" clip-path="url(#id_0)" d="M88.0 345.0L74.0 345.0L74.0 345.0L88.0 345.0Z" fill-rule="nonzero"/><path fill="#ea4335" clip-path="url(#id_0)" d="M88.0 345.0L74.0 345.0L74.0 345.0L88.0 345.0Z" fill-rule="nonzero"/><path stroke="#000000" stroke-width="2.0" stroke-linecap="butt" stroke-opacity="0.0" clip-path="url(#id_0)" d="M109.0 345.0L95.0 345.0L95.0 345.0L109.0 345.0Z" fill-rule="nonzero"/><path fill="#ea4335" clip-path="url(#id_0)" d="M109.0 345.0L95.0 345.0L95.0 345.0L109.0 345.0Z" fill-rule="nonzero"/><path stroke="#000000" stroke-width="2.0" stroke-linecap="butt" stroke-opacity="0.0" clip-path="url(#id_0)" d="M130.0 345.0L116.0 345.0L116.0 345.0L130.0 345.0Z" fill-rule="nonzero"/><path fill="#ea4335" clip-path="url(#id_0)" d="M130.0 345.0L116.0 345.0L116.0 345.0L130.0 345.0Z" fill-rule="nonzero"/><path stroke="#000000" stroke-width="2.0" stroke-linecap="butt" stroke-opacity="0.0" clip-path="url(#id_0)" d="M151.0 281.0L137.0 281.0L137.0 243.0L151.0 243.0Z" fill-rule="nonzero"/><path fill="#ea4335" clip-path="url(#id_0)" d="M151.0 281.0L137.0 281.0L137.0 243.0L151.0 243.0Z" fill-rule="nonzero"/><path stroke="#000000" stroke-width="2.0" stroke-linecap="butt" stroke-opacity="0.0" clip-path="url(#id_0)" d="M173.0 345.0L159.0 345.0L159.0 345.0L173.0 345.0Z" fill-rule="nonzero"/><path fill="#ea4335" clip-path="url(#id_0)" d="M173.0 345.0L159.0 345.0L159.0 345.0L173.0 345.0Z" fill-rule="nonzero"/><path stroke="#000000" stroke-width="2.0" stroke-linecap="butt" stroke-opacity="0.0" clip-path="url(#id_0)" d="M194.0 345.0L180.0 345.0L180.0 345.0L194.0 345.0Z" fill-rule="nonzero"/><path fill="#ea4335" clip-path="url(#id_0)" d="M194.0 345.0L180.0 345.0L180.0 345.0L194.0 345.0Z" fill-rule="nonzero"/><path stroke="#000000" stroke-width="2.0" stroke-linecap="butt" stroke-opacity="0.0" clip-path="url(#id_0)" d="M215.0 345.0L201.0 345.0L201.0 345.0L215.0 345.0Z" fill-rule="nonzero"/><path fill="#ea4335" clip-path="url(#id_0)" d="M215.0 345.0L201.0 345.0L201.0 345.0L215.0 345.0Z" fill-rule="nonzero"/><path stroke="#000000" stroke-width="2.0" stroke-linecap="butt" stroke-opacity="0.0" clip-path="url(#id_0)" d="M236.0 281.0L222.0 281.0L222.0 192.0L236.0 192.0Z" fill-rule="nonzero"/><path fill="#ea4335" clip-path="url(#id_0)" d="M236.0 281.0L222.0 281.0L222.0 192.0L236.0 192.0Z" fill-rule="nonzero"/><path stroke="#000000" stroke-width="2.0" stroke-linecap="butt" stroke-opacity="0.0" clip-path="url(#id_0)" d="M257.0 345.0L243.0 345.0L243.0 345.0L257.0 345.0Z" fill-rule="nonzero"/><path fill="#ea4335" clip-path="url(#id_0)" d="M257.0 345.0L243.0 345.0L243.0 345.0L257.0 345.0Z" fill-rule="nonzero"/><path stroke="#000000" stroke-width="2.0" stroke-linecap="butt" stroke-opacity="0.0" clip-path="url(#id_0)" d="M278.0 345.0L264.0 345.0L264.0 345.0L278.0 345.0Z" fill-rule="nonzero"/><path fill="#ea4335" clip-path="url(#id_0)" d="M278.0 345.0L264.0 345.0L264.0 345.0L278.0 345.0Z" fill-rule="nonzero"/><path stroke="#000000" stroke-width="2.0" stroke-linecap="butt" stroke-opacity="0.0" clip-path="url(#id_0)" d="M299.0 345.0L285.0 345.0L285.0 345.0L299.0 345.0Z" fill-rule="nonzero"/><path fill="#ea4335" clip-path="url(#id_0)" d="M299.0 345.0L285.0 345.0L285.0 345.0L299.0 345.0Z" fill-rule="nonzero"/><path stroke="#000000" stroke-width="2.0" stroke-linecap="butt" stroke-opacity="0.0" clip-path="url(#id_0)" d="M321.0 345.0L307.0 345.0L307.0 320.0L321.0 320.0Z" fill-rule="nonzero"/><path fill="#ea4335" clip-path="url(#id_0)" d="M321.0 345.0L307.0 345.0L307.0 320.0L321.0 320.0Z" fill-rule="nonzero"/><path stroke="#000000" stroke-width="2.0" stroke-linecap="butt" stroke-opacity="0.0" clip-path="url(#id_0)" d="M342.0 345.0L328.0 345.0L328.0 345.0L342.0 345.0Z" fill-rule="nonzero"/><path fill="#ea4335" clip-path="url(#id_0)" d="M342.0 345.0L328.0 345.0L328.0 345.0L342.0 345.0Z" fill-rule="nonzero"/><path stroke="#000000" stroke-width="2.0" stroke-linecap="butt" stroke-opacity="0.0" clip-path="url(#id_0)" d="M363.0 345.0L349.0 345.0L349.0 345.0L363.0 345.0Z" fill-rule="nonzero"/><path fill="#ea4335" clip-path="url(#id_0)" d="M363.0 345.0L349.0 345.0L349.0 345.0L363.0 345.0Z" fill-rule="nonzero"/><path stroke="#000000" stroke-width="2.0" stroke-linecap="butt" stroke-opacity="0.0" clip-path="url(#id_0)" d="M384.0 320.0L370.0 320.0L370.0 320.0L384.0 320.0Z" fill-rule="nonzero"/><path fill="#ea4335" clip-path="url(#id_0)" d="M384.0 320.0L370.0 320.0L370.0 320.0L384.0 320.0Z" fill-rule="nonzero"/><path stroke="#000000" stroke-width="2.0" stroke-linecap="butt" stroke-opacity="0.0" clip-path="url(#id_0)" d="M405.0 345.0L391.0 345.0L391.0 345.0L405.0 345.0Z" fill-rule="nonzero"/><path fill="#ea4335" clip-path="url(#id_0)" d="M405.0 345.0L391.0 345.0L391.0 345.0L405.0 345.0Z" fill-rule="nonzero"/><path stroke="#000000" stroke-width="2.0" stroke-linecap="butt" stroke-opacity="0.0" clip-path="url(#id_0)" d="M426.0 345.0L412.0 345.0L412.0 345.0L426.0 345.0Z" fill-rule="nonzero"/><path fill="#ea4335" clip-path="url(#id_0)" d="M426.0 345.0L412.0 345.0L412.0 345.0L426.0 345.0Z" fill-rule="nonzero"/><path stroke="#000000" stroke-width="2.0" stroke-linecap="butt" stroke-opacity="0.0" clip-path="url(#id_0)" d="M447.0 345.0L433.0 345.0L433.0 345.0L447.0 345.0Z" fill-rule="nonzero"/><path fill="#ea4335" clip-path="url(#id_0)" d="M447.0 345.0L433.0 345.0L433.0 345.0L447.0 345.0Z" fill-rule="nonzero"/><path stroke="#000000" stroke-width="2.0" stroke-linecap="butt" stroke-opacity="0.0" clip-path="url(#id_0)" d="M468.0 333.0L454.0 333.0L454.0 333.0L468.0 333.0Z" fill-rule="nonzero"/><path fill="#ea4335" clip-path="url(#id_0)" d="M468.0 333.0L454.0 333.0L454.0 333.0L468.0 333.0Z" fill-rule="nonzero"/><path stroke="#000000" stroke-width="2.0" stroke-linecap="butt" stroke-opacity="0.0" clip-path="url(#id_0)" d="M490.0 345.0L476.0 345.0L476.0 345.0L490.0 345.0Z" fill-rule="nonzero"/><path fill="#ea4335" clip-path="url(#id_0)" d="M490.0 345.0L476.0 345.0L476.0 345.0L490.0 345.0Z" fill-rule="nonzero"/><path stroke="#000000" stroke-width="2.0" stroke-linecap="butt" stroke-opacity="0.0" clip-path="url(#id_0)" d="M511.0 345.0L497.0 345.0L497.0 345.0L511.0 345.0Z" fill-rule="nonzero"/><path fill="#ea4335" clip-path="url(#id_0)" d="M511.0 345.0L497.0 345.0L497.0 345.0L511.0 345.0Z" fill-rule="nonzero"/><path stroke="#000000" stroke-width="2.0" stroke-linecap="butt" stroke-opacity="0.0" clip-path="url(#id_0)" d="M532.0 345.0L518.0 345.0L518.0 345.0L532.0 345.0Z" fill-rule="nonzero"/><path fill="#ea4335" clip-path="url(#id_0)" d="M532.0 345.0L518.0 345.0L518.0 345.0L532.0 345.0Z" fill-rule="nonzero"/><path stroke="#000000" stroke-width="2.0" stroke-linecap="butt" stroke-opacity="0.0" clip-path="url(#id_0)" d="M553.0 217.0L539.0 217.0L539.0 154.0L553.0 154.0Z" fill-rule="nonzero"/><path fill="#ea4335" clip-path="url(#id_0)" d="M553.0 217.0L539.0 217.0L539.0 154.0L553.0 154.0Z" fill-rule="nonzero"/><path stroke="#000000" stroke-width="2.0" stroke-linecap="butt" stroke-opacity="0.0" clip-path="url(#id_0)" d="M67.0 217.0L53.0 217.0L53.0 128.0L67.0 128.0Z" fill-rule="nonzero"/><path fill="#fbbc04" clip-path="url(#id_0)" d="M67.0 217.0L53.0 217.0L53.0 128.0L67.0 128.0Z" fill-rule="nonzero"/><path stroke="#000000" stroke-width="2.0" stroke-linecap="butt" stroke-opacity="0.0" clip-path="url(#id_0)" d="M88.0 345.0L74.0 345.0L74.0 345.0L88.0 345.0Z" fill-rule="nonzero"/><path fill="#fbbc04" clip-path="url(#id_0)" d="M88.0 345.0L74.0 345.0L74.0 345.0L88.0 345.0Z" fill-rule="nonzero"/><path stroke="#000000" stroke-width="2.0" stroke-linecap="butt" stroke-opacity="0.0" clip-path="url(#id_0)" d="M109.0 345.0L95.0 345.0L95.0 345.0L109.0 345.0Z" fill-rule="nonzero"/><path fill="#fbbc04" clip-path="url(#id_0)" d="M109.0 345.0L95.0 345.0L95.0 345.0L109.0 345.0Z" fill-rule="nonzero"/><path stroke="#000000" stroke-width="2.0" stroke-linecap="butt" stroke-opacity="0.0" clip-path="url(#id_0)" d="M130.0 345.0L116.0 345.0L116.0 345.0L130.0 345.0Z" fill-rule="nonzero"/><path fill="#fbbc04" clip-path="url(#id_0)" d="M130.0 345.0L116.0 345.0L116.0 345.0L130.0 345.0Z" fill-rule="nonzero"/><path stroke="#000000" stroke-width="2.0" stroke-linecap="butt" stroke-opacity="0.0" clip-path="url(#id_0)" d="M151.0 243.0L137.0 243.0L137.0 166.0L151.0 166.0Z" fill-rule="nonzero"/><path fill="#fbbc04" clip-path="url(#id_0)" d="M151.0 243.0L137.0 243.0L137.0 166.0L151.0 166.0Z" fill-rule="nonzero"/><path stroke="#000000" stroke-width="2.0" stroke-linecap="butt" stroke-opacity="0.0" clip-path="url(#id_0)" d="M173.0 345.0L159.0 345.0L159.0 345.0L173.0 345.0Z" fill-rule="nonzero"/><path fill="#fbbc04" clip-path="url(#id_0)" d="M173.0 345.0L159.0 345.0L159.0 345.0L173.0 345.0Z" fill-rule="nonzero"/><path stroke="#000000" stroke-width="2.0" stroke-linecap="butt" stroke-opacity="0.0" clip-path="url(#id_0)" d="M194.0 345.0L180.0 345.0L180.0 345.0L194.0 345.0Z" fill-rule="nonzero"/><path fill="#fbbc04" clip-path="url(#id_0)" d="M194.0 345.0L180.0 345.0L180.0 345.0L194.0 345.0Z" fill-rule="nonzero"/><path stroke="#000000" stroke-width="2.0" stroke-linecap="butt" stroke-opacity="0.0" clip-path="url(#id_0)" d="M215.0 345.0L201.0 345.0L201.0 345.0L215.0 345.0Z" fill-rule="nonzero"/><path fill="#fbbc04" clip-path="url(#id_0)" d="M215.0 345.0L201.0 345.0L201.0 345.0L215.0 345.0Z" fill-rule="nonzero"/><path stroke="#000000" stroke-width="2.0" stroke-linecap="butt" stroke-opacity="0.0" clip-path="url(#id_0)" d="M236.0 192.0L222.0 192.0L222.0 166.0L236.0 166.0Z" fill-rule="nonzero"/><path fill="#fbbc04" clip-path="url(#id_0)" d="M236.0 192.0L222.0 192.0L222.0 166.0L236.0 166.0Z" fill-rule="nonzero"/><path stroke="#000000" stroke-width="2.0" stroke-linecap="butt" stroke-opacity="0.0" clip-path="url(#id_0)" d="M257.0 345.0L243.0 345.0L243.0 345.0L257.0 345.0Z" fill-rule="nonzero"/><path fill="#fbbc04" clip-path="url(#id_0)" d="M257.0 345.0L243.0 345.0L243.0 345.0L257.0 345.0Z" fill-rule="nonzero"/><path stroke="#000000" stroke-width="2.0" stroke-linecap="butt" stroke-opacity="0.0" clip-path="url(#id_0)" d="M278.0 345.0L264.0 345.0L264.0 345.0L278.0 345.0Z" fill-rule="nonzero"/><path fill="#fbbc04" clip-path="url(#id_0)" d="M278.0 345.0L264.0 345.0L264.0 345.0L278.0 345.0Z" fill-rule="nonzero"/><path stroke="#000000" stroke-width="2.0" stroke-linecap="butt" stroke-opacity="0.0" clip-path="url(#id_0)" d="M299.0 345.0L285.0 345.0L285.0 345.0L299.0 345.0Z" fill-rule="nonzero"/><path fill="#fbbc04" clip-path="url(#id_0)" d="M299.0 345.0L285.0 345.0L285.0 345.0L299.0 345.0Z" fill-rule="nonzero"/><path stroke="#000000" stroke-width="2.0" stroke-linecap="butt" stroke-opacity="0.0" clip-path="url(#id_0)" d="M321.0 320.0L307.0 320.0L307.0 281.0L321.0 281.0Z" fill-rule="nonzero"/><path fill="#fbbc04" clip-path="url(#id_0)" d="M321.0 320.0L307.0 320.0L307.0 281.0L321.0 281.0Z" fill-rule="nonzero"/><path stroke="#000000" stroke-width="2.0" stroke-linecap="butt" stroke-opacity="0.0" clip-path="url(#id_0)" d="M342.0 345.0L328.0 345.0L328.0 345.0L342.0 345.0Z" fill-rule="nonzero"/><path fill="#fbbc04" clip-path="url(#id_0)" d="M342.0 345.0L328.0 345.0L328.0 345.0L342.0 345.0Z" fill-rule="nonzero"/><path stroke="#000000" stroke-width="2.0" stroke-linecap="butt" stroke-opacity="0.0" clip-path="url(#id_0)" d="M363.0 345.0L349.0 345.0L349.0 345.0L363.0 345.0Z" fill-rule="nonzero"/><path fill="#fbbc04" clip-path="url(#id_0)" d="M363.0 345.0L349.0 345.0L349.0 345.0L363.0 345.0Z" fill-rule="nonzero"/><path stroke="#000000" stroke-width="2.0" stroke-linecap="butt" stroke-opacity="0.0" clip-path="url(#id_0)" d="M384.0 320.0L370.0 320.0L370.0 281.0L384.0 281.0Z" fill-rule="nonzero"/><path fill="#fbbc04" clip-path="url(#id_0)" d="M384.0 320.0L370.0 320.0L370.0 281.0L384.0 281.0Z" fill-rule="nonzero"/><path stroke="#000000" stroke-width="2.0" stroke-linecap="butt" stroke-opacity="0.0" clip-path="url(#id_0)" d="M405.0 345.0L391.0 345.0L391.0 345.0L405.0 345.0Z" fill-rule="nonzero"/><path fill="#fbbc04" clip-path="url(#id_0)" d="M405.0 345.0L391.0 345.0L391.0 345.0L405.0 345.0Z" fill-rule="nonzero"/><path stroke="#000000" stroke-width="2.0" stroke-linecap="butt" stroke-opacity="0.0" clip-path="url(#id_0)" d="M426.0 345.0L412.0 345.0L412.0 345.0L426.0 345.0Z" fill-rule="nonzero"/><path fill="#fbbc04" clip-path="url(#id_0)" d="M426.0 345.0L412.0 345.0L412.0 345.0L426.0 345.0Z" fill-rule="nonzero"/><path stroke="#000000" stroke-width="2.0" stroke-linecap="butt" stroke-opacity="0.0" clip-path="url(#id_0)" d="M447.0 345.0L433.0 345.0L433.0 345.0L447.0 345.0Z" fill-rule="nonzero"/><path fill="#fbbc04" clip-path="url(#id_0)" d="M447.0 345.0L433.0 345.0L433.0 345.0L447.0 345.0Z" fill-rule="nonzero"/><path stroke="#000000" stroke-width="2.0" stroke-linecap="butt" stroke-opacity="0.0" clip-path="url(#id_0)" d="M468.0 333.0L454.0 333.0L454.0 333.0L468.0 333.0Z" fill-rule="nonzero"/><path fill="#fbbc04" clip-path="url(#id_0)" d="M468.0 333.0L454.0 333.0L454.0 333.0L468.0 333.0Z" fill-rule="nonzero"/><path stroke="#000000" stroke-width="2.0" stroke-linecap="butt" stroke-opacity="0.0" clip-path="url(#id_0)" d="M490.0 345.0L476.0 345.0L476.0 345.0L490.0 345.0Z" fill-rule="nonzero"/><path fill="#fbbc04" clip-path="url(#id_0)" d="M490.0 345.0L476.0 345.0L476.0 345.0L490.0 345.0Z" fill-rule="nonzero"/><path stroke="#000000" stroke-width="2.0" stroke-linecap="butt" stroke-opacity="0.0" clip-path="url(#id_0)" d="M511.0 345.0L497.0 345.0L497.0 345.0L511.0 345.0Z" fill-rule="nonzero"/><path fill="#fbbc04" clip-path="url(#id_0)" d="M511.0 345.0L497.0 345.0L497.0 345.0L511.0 345.0Z" fill-rule="nonzero"/><path stroke="#000000" stroke-width="2.0" stroke-linecap="butt" stroke-opacity="0.0" clip-path="url(#id_0)" d="M532.0 345.0L518.0 345.0L518.0 345.0L532.0 345.0Z" fill-rule="nonzero"/><path fill="#fbbc04" clip-path="url(#id_0)" d="M532.0 345.0L518.0 345.0L518.0 345.0L532.0 345.0Z" fill-rule="nonzero"/><path stroke="#000000" stroke-width="2.0" stroke-linecap="butt" stroke-opacity="0.0" clip-path="url(#id_0)" d="M553.0 154.0L539.0 154.0L539.0 115.0L553.0 115.0Z" fill-rule="nonzero"/><path fill="#fbbc04" clip-path="url(#id_0)" d="M553.0 154.0L539.0 154.0L539.0 115.0L553.0 115.0Z" fill-rule="nonzero"/><path stroke="#000000" stroke-width="2.0" stroke-linecap="butt" stroke-opacity="0.0" clip-path="url(#id_0)" d="M67.0 128.0L53.0 128.0L53.0 64.0L67.0 64.0Z" fill-rule="nonzero"/><path fill="#9900ff" clip-path="url(#id_0)" d="M67.0 128.0L53.0 128.0L53.0 64.0L67.0 64.0Z" fill-rule="nonzero"/><path stroke="#000000" stroke-width="2.0" stroke-linecap="butt" stroke-opacity="0.0" clip-path="url(#id_0)" d="M88.0 345.0L74.0 345.0L74.0 345.0L88.0 345.0Z" fill-rule="nonzero"/><path fill="#9900ff" clip-path="url(#id_0)" d="M88.0 345.0L74.0 345.0L74.0 345.0L88.0 345.0Z" fill-rule="nonzero"/><path stroke="#000000" stroke-width="2.0" stroke-linecap="butt" stroke-opacity="0.0" clip-path="url(#id_0)" d="M109.0 345.0L95.0 345.0L95.0 345.0L109.0 345.0Z" fill-rule="nonzero"/><path fill="#9900ff" clip-path="url(#id_0)" d="M109.0 345.0L95.0 345.0L95.0 345.0L109.0 345.0Z" fill-rule="nonzero"/><path stroke="#000000" stroke-width="2.0" stroke-linecap="butt" stroke-opacity="0.0" clip-path="url(#id_0)" d="M130.0 345.0L116.0 345.0L116.0 345.0L130.0 345.0Z" fill-rule="nonzero"/><path fill="#9900ff" clip-path="url(#id_0)" d="M130.0 345.0L116.0 345.0L116.0 345.0L130.0 345.0Z" fill-rule="nonzero"/><path stroke="#000000" stroke-width="2.0" stroke-linecap="butt" stroke-opacity="0.0" clip-path="url(#id_0)" d="M151.0 166.0L137.0 166.0L137.0 115.0L151.0 115.0Z" fill-rule="nonzero"/><path fill="#9900ff" clip-path="url(#id_0)" d="M151.0 166.0L137.0 166.0L137.0 115.0L151.0 115.0Z" fill-rule="nonzero"/><path stroke="#000000" stroke-width="2.0" stroke-linecap="butt" stroke-opacity="0.0" clip-path="url(#id_0)" d="M173.0 345.0L159.0 345.0L159.0 345.0L173.0 345.0Z" fill-rule="nonzero"/><path fill="#9900ff" clip-path="url(#id_0)" d="M173.0 345.0L159.0 345.0L159.0 345.0L173.0 345.0Z" fill-rule="nonzero"/><path stroke="#000000" stroke-width="2.0" stroke-linecap="butt" stroke-opacity="0.0" clip-path="url(#id_0)" d="M194.0 345.0L180.0 345.0L180.0 345.0L194.0 345.0Z" fill-rule="nonzero"/><path fill="#9900ff" clip-path="url(#id_0)" d="M194.0 345.0L180.0 345.0L180.0 345.0L194.0 345.0Z" fill-rule="nonzero"/><path stroke="#000000" stroke-width="2.0" stroke-linecap="butt" stroke-opacity="0.0" clip-path="url(#id_0)" d="M215.0 345.0L201.0 345.0L201.0 345.0L215.0 345.0Z" fill-rule="nonzero"/><path fill="#9900ff" clip-path="url(#id_0)" d="M215.0 345.0L201.0 345.0L201.0 345.0L215.0 345.0Z" fill-rule="nonzero"/><path stroke="#000000" stroke-width="2.0" stroke-linecap="butt" stroke-opacity="0.0" clip-path="url(#id_0)" d="M236.0 166.0L222.0 166.0L222.0 128.0L236.0 128.0Z" fill-rule="nonzero"/><path fill="#9900ff" clip-path="url(#id_0)" d="M236.0 166.0L222.0 166.0L222.0 128.0L236.0 128.0Z" fill-rule="nonzero"/><path stroke="#000000" stroke-width="2.0" stroke-linecap="butt" stroke-opacity="0.0" clip-path="url(#id_0)" d="M257.0 345.0L243.0 345.0L243.0 345.0L257.0 345.0Z" fill-rule="nonzero"/><path fill="#9900ff" clip-path="url(#id_0)" d="M257.0 345.0L243.0 345.0L243.0 345.0L257.0 345.0Z" fill-rule="nonzero"/><path stroke="#000000" stroke-width="2.0" stroke-linecap="butt" stroke-opacity="0.0" clip-path="url(#id_0)" d="M278.0 345.0L264.0 345.0L264.0 345.0L278.0 345.0Z" fill-rule="nonzero"/><path fill="#9900ff" clip-path="url(#id_0)" d="M278.0 345.0L264.0 345.0L264.0 345.0L278.0 345.0Z" fill-rule="nonzero"/><path stroke="#000000" stroke-width="2.0" stroke-linecap="butt" stroke-opacity="0.0" clip-path="url(#id_0)" d="M299.0 345.0L285.0 345.0L285.0 345.0L299.0 345.0Z" fill-rule="nonzero"/><path fill="#9900ff" clip-path="url(#id_0)" d="M299.0 345.0L285.0 345.0L285.0 345.0L299.0 345.0Z" fill-rule="nonzero"/><path stroke="#000000" stroke-width="2.0" stroke-linecap="butt" stroke-opacity="0.0" clip-path="url(#id_0)" d="M321.0 281.0L307.0 281.0L307.0 281.0L321.0 281.0Z" fill-rule="nonzero"/><path fill="#9900ff" clip-path="url(#id_0)" d="M321.0 281.0L307.0 281.0L307.0 281.0L321.0 281.0Z" fill-rule="nonzero"/><path stroke="#000000" stroke-width="2.0" stroke-linecap="butt" stroke-opacity="0.0" clip-path="url(#id_0)" d="M342.0 345.0L328.0 345.0L328.0 345.0L342.0 345.0Z" fill-rule="nonzero"/><path fill="#9900ff" clip-path="url(#id_0)" d="M342.0 345.0L328.0 345.0L328.0 345.0L342.0 345.0Z" fill-rule="nonzero"/><path stroke="#000000" stroke-width="2.0" stroke-linecap="butt" stroke-opacity="0.0" clip-path="url(#id_0)" d="M363.0 345.0L349.0 345.0L349.0 345.0L363.0 345.0Z" fill-rule="nonzero"/><path fill="#9900ff" clip-path="url(#id_0)" d="M363.0 345.0L349.0 345.0L349.0 345.0L363.0 345.0Z" fill-rule="nonzero"/><path stroke="#000000" stroke-width="2.0" stroke-linecap="butt" stroke-opacity="0.0" clip-path="url(#id_0)" d="M384.0 281.0L370.0 281.0L370.0 217.0L384.0 217.0Z" fill-rule="nonzero"/><path fill="#9900ff" clip-path="url(#id_0)" d="M384.0 281.0L370.0 281.0L370.0 217.0L384.0 217.0Z" fill-rule="nonzero"/><path stroke="#000000" stroke-width="2.0" stroke-linecap="butt" stroke-opacity="0.0" clip-path="url(#id_0)" d="M405.0 345.0L391.0 345.0L391.0 345.0L405.0 345.0Z" fill-rule="nonzero"/><path fill="#9900ff" clip-path="url(#id_0)" d="M405.0 345.0L391.0 345.0L391.0 345.0L405.0 345.0Z" fill-rule="nonzero"/><path stroke="#000000" stroke-width="2.0" stroke-linecap="butt" stroke-opacity="0.0" clip-path="url(#id_0)" d="M426.0 345.0L412.0 345.0L412.0 345.0L426.0 345.0Z" fill-rule="nonzero"/><path fill="#9900ff" clip-path="url(#id_0)" d="M426.0 345.0L412.0 345.0L412.0 345.0L426.0 345.0Z" fill-rule="nonzero"/><path stroke="#000000" stroke-width="2.0" stroke-linecap="butt" stroke-opacity="0.0" clip-path="url(#id_0)" d="M447.0 345.0L433.0 345.0L433.0 345.0L447.0 345.0Z" fill-rule="nonzero"/><path fill="#9900ff" clip-path="url(#id_0)" d="M447.0 345.0L433.0 345.0L433.0 345.0L447.0 345.0Z" fill-rule="nonzero"/><path stroke="#000000" stroke-width="2.0" stroke-linecap="butt" stroke-opacity="0.0" clip-path="url(#id_0)" d="M468.0 333.0L454.0 333.0L454.0 320.0L468.0 320.0Z" fill-rule="nonzero"/><path fill="#9900ff" clip-path="url(#id_0)" d="M468.0 333.0L454.0 333.0L454.0 320.0L468.0 320.0Z" fill-rule="nonzero"/><path stroke="#000000" stroke-width="2.0" stroke-linecap="butt" stroke-opacity="0.0" clip-path="url(#id_0)" d="M490.0 345.0L476.0 345.0L476.0 345.0L490.0 345.0Z" fill-rule="nonzero"/><path fill="#9900ff" clip-path="url(#id_0)" d="M490.0 345.0L476.0 345.0L476.0 345.0L490.0 345.0Z" fill-rule="nonzero"/><path stroke="#000000" stroke-width="2.0" stroke-linecap="butt" stroke-opacity="0.0" clip-path="url(#id_0)" d="M511.0 345.0L497.0 345.0L497.0 345.0L511.0 345.0Z" fill-rule="nonzero"/><path fill="#9900ff" clip-path="url(#id_0)" d="M511.0 345.0L497.0 345.0L497.0 345.0L511.0 345.0Z" fill-rule="nonzero"/><path stroke="#000000" stroke-width="2.0" stroke-linecap="butt" stroke-opacity="0.0" clip-path="url(#id_0)" d="M532.0 345.0L518.0 345.0L518.0 345.0L532.0 345.0Z" fill-rule="nonzero"/><path fill="#9900ff" clip-path="url(#id_0)" d="M532.0 345.0L518.0 345.0L518.0 345.0L532.0 345.0Z" fill-rule="nonzero"/><path stroke="#000000" stroke-width="2.0" stroke-linecap="butt" stroke-opacity="0.0" clip-path="url(#id_0)" d="M553.0 115.0L539.0 115.0L539.0 26.0L553.0 26.0Z" fill-rule="nonzero"/><path fill="#9900ff" clip-path="url(#id_0)" d="M553.0 115.0L539.0 115.0L539.0 26.0L553.0 26.0Z" fill-rule="nonzero"/><path stroke="#000000" stroke-width="2.0" stroke-linecap="butt" stroke-opacity="0.0" clip-path="url(#id_0)" d="M67.0 64.0L53.0 64.0L53.0 64.0L67.0 64.0Z" fill-rule="nonzero"/><path fill="#34a853" clip-path="url(#id_0)" d="M67.0 64.0L53.0 64.0L53.0 64.0L67.0 64.0Z" fill-rule="nonzero"/><path stroke="#000000" stroke-width="2.0" stroke-linecap="butt" stroke-opacity="0.0" clip-path="url(#id_0)" d="M88.0 345.0L74.0 345.0L74.0 245.0C74.0 243.89543 74.89543 243.0 76.0 243.0L86.0 243.0C87.10457 243.0 88.0 243.89543 88.0 245.0Z" fill-rule="nonzero"/><path fill="#34a853" clip-path="url(#id_0)" d="M88.0 345.0L74.0 345.0L74.0 245.0C74.0 243.89543 74.89543 243.0 76.0 243.0L86.0 243.0C87.10457 243.0 88.0 243.89543 88.0 245.0Z" fill-rule="nonzero"/><path stroke="#000000" stroke-width="2.0" stroke-linecap="butt" stroke-opacity="0.0" clip-path="url(#id_0)" d="M109.0 345.0L95.0 345.0L95.0 345.0L109.0 345.0Z" fill-rule="nonzero"/><path fill="#34a853" clip-path="url(#id_0)" d="M109.0 345.0L95.0 345.0L95.0 345.0L109.0 345.0Z" fill-rule="nonzero"/><path stroke="#000000" stroke-width="2.0" stroke-linecap="butt" stroke-opacity="0.0" clip-path="url(#id_0)" d="M130.0 345.0L116.0 345.0L116.0 345.0L130.0 345.0Z" fill-rule="nonzero"/><path fill="#34a853" clip-path="url(#id_0)" d="M130.0 345.0L116.0 345.0L116.0 345.0L130.0 345.0Z" fill-rule="nonzero"/><path stroke="#000000" stroke-width="2.0" stroke-linecap="butt" stroke-opacity="0.0" clip-path="url(#id_0)" d="M151.0 115.0L137.0 115.0L137.0 115.0L151.0 115.0Z" fill-rule="nonzero"/><path fill="#34a853" clip-path="url(#id_0)" d="M151.0 115.0L137.0 115.0L137.0 115.0L151.0 115.0Z" fill-rule="nonzero"/><path stroke="#000000" stroke-width="2.0" stroke-linecap="butt" stroke-opacity="0.0" clip-path="url(#id_0)" d="M173.0 345.0L159.0 345.0L159.0 194.0C159.0 192.89543 159.89543 192.0 161.0 192.0L171.0 192.0C172.10457 192.0 173.0 192.89543 173.0 194.0Z" fill-rule="nonzero"/><path fill="#34a853" clip-path="url(#id_0)" d="M173.0 345.0L159.0 345.0L159.0 194.0C159.0 192.89543 159.89543 192.0 161.0 192.0L171.0 192.0C172.10457 192.0 173.0 192.89543 173.0 194.0Z" fill-rule="nonzero"/><path stroke="#000000" stroke-width="2.0" stroke-linecap="butt" stroke-opacity="0.0" clip-path="url(#id_0)" d="M194.0 345.0L180.0 345.0L180.0 345.0L194.0 345.0Z" fill-rule="nonzero"/><path fill="#34a853" clip-path="url(#id_0)" d="M194.0 345.0L180.0 345.0L180.0 345.0L194.0 345.0Z" fill-rule="nonzero"/><path stroke="#000000" stroke-width="2.0" stroke-linecap="butt" stroke-opacity="0.0" clip-path="url(#id_0)" d="M215.0 345.0L201.0 345.0L201.0 345.0L215.0 345.0Z" fill-rule="nonzero"/><path fill="#34a853" clip-path="url(#id_0)" d="M215.0 345.0L201.0 345.0L201.0 345.0L215.0 345.0Z" fill-rule="nonzero"/><path stroke="#000000" stroke-width="2.0" stroke-linecap="butt" stroke-opacity="0.0" clip-path="url(#id_0)" d="M236.0 128.0L222.0 128.0L222.0 128.0L236.0 128.0Z" fill-rule="nonzero"/><path fill="#34a853" clip-path="url(#id_0)" d="M236.0 128.0L222.0 128.0L222.0 128.0L236.0 128.0Z" fill-rule="nonzero"/><path stroke="#000000" stroke-width="2.0" stroke-linecap="butt" stroke-opacity="0.0" clip-path="url(#id_0)" d="M257.0 345.0L243.0 345.0L243.0 181.0C243.0 179.89543 243.89543 179.0 245.0 179.0L255.0 179.0C256.10458 179.0 257.0 179.89543 257.0 181.0Z" fill-rule="nonzero"/><path fill="#34a853" clip-path="url(#id_0)" d="M257.0 345.0L243.0 345.0L243.0 181.0C243.0 179.89543 243.89543 179.0 245.0 179.0L255.0 179.0C256.10458 179.0 257.0 179.89543 257.0 181.0Z" fill-rule="nonzero"/><path stroke="#000000" stroke-width="2.0" stroke-linecap="butt" stroke-opacity="0.0" clip-path="url(#id_0)" d="M278.0 345.0L264.0 345.0L264.0 345.0L278.0 345.0Z" fill-rule="nonzero"/><path fill="#34a853" clip-path="url(#id_0)" d="M278.0 345.0L264.0 345.0L264.0 345.0L278.0 345.0Z" fill-rule="nonzero"/><path stroke="#000000" stroke-width="2.0" stroke-linecap="butt" stroke-opacity="0.0" clip-path="url(#id_0)" d="M299.0 345.0L285.0 345.0L285.0 345.0L299.0 345.0Z" fill-rule="nonzero"/><path fill="#34a853" clip-path="url(#id_0)" d="M299.0 345.0L285.0 345.0L285.0 345.0L299.0 345.0Z" fill-rule="nonzero"/><path stroke="#000000" stroke-width="2.0" stroke-linecap="butt" stroke-opacity="0.0" clip-path="url(#id_0)" d="M321.0 281.0L307.0 281.0L307.0 281.0L321.0 281.0Z" fill-rule="nonzero"/><path fill="#34a853" clip-path="url(#id_0)" d="M321.0 281.0L307.0 281.0L307.0 281.0L321.0 281.0Z" fill-rule="nonzero"/><path stroke="#000000" stroke-width="2.0" stroke-linecap="butt" stroke-opacity="0.0" clip-path="url(#id_0)" d="M342.0 345.0L328.0 345.0L328.0 104.0C328.0 102.89543 328.89542 102.0 330.0 102.0L340.0 102.0C341.10458 102.0 342.0 102.89543 342.0 104.0Z" fill-rule="nonzero"/><path fill="#34a853" clip-path="url(#id_0)" d="M342.0 345.0L328.0 345.0L328.0 104.0C328.0 102.89543 328.89542 102.0 330.0 102.0L340.0 102.0C341.10458 102.0 342.0 102.89543 342.0 104.0Z" fill-rule="nonzero"/><path stroke="#000000" stroke-width="2.0" stroke-linecap="butt" stroke-opacity="0.0" clip-path="url(#id_0)" d="M363.0 345.0L349.0 345.0L349.0 345.0L363.0 345.0Z" fill-rule="nonzero"/><path fill="#34a853" clip-path="url(#id_0)" d="M363.0 345.0L349.0 345.0L349.0 345.0L363.0 345.0Z" fill-rule="nonzero"/><path stroke="#000000" stroke-width="2.0" stroke-linecap="butt" stroke-opacity="0.0" clip-path="url(#id_0)" d="M384.0 217.0L370.0 217.0L370.0 217.0L384.0 217.0Z" fill-rule="nonzero"/><path fill="#34a853" clip-path="url(#id_0)" d="M384.0 217.0L370.0 217.0L370.0 217.0L384.0 217.0Z" fill-rule="nonzero"/><path stroke="#000000" stroke-width="2.0" stroke-linecap="butt" stroke-opacity="0.0" clip-path="url(#id_0)" d="M405.0 345.0L391.0 345.0L391.0 283.0C391.0 281.89542 391.89542 281.0 393.0 281.0L403.0 281.0C404.10458 281.0 405.0 281.89542 405.0 283.0Z" fill-rule="nonzero"/><path fill="#34a853" clip-path="url(#id_0)" d="M405.0 345.0L391.0 345.0L391.0 283.0C391.0 281.89542 391.89542 281.0 393.0 281.0L403.0 281.0C404.10458 281.0 405.0 281.89542 405.0 283.0Z" fill-rule="nonzero"/><path stroke="#000000" stroke-width="2.0" stroke-linecap="butt" stroke-opacity="0.0" clip-path="url(#id_0)" d="M426.0 345.0L412.0 345.0L412.0 345.0L426.0 345.0Z" fill-rule="nonzero"/><path fill="#34a853" clip-path="url(#id_0)" d="M426.0 345.0L412.0 345.0L412.0 345.0L426.0 345.0Z" fill-rule="nonzero"/><path stroke="#000000" stroke-width="2.0" stroke-linecap="butt" stroke-opacity="0.0" clip-path="url(#id_0)" d="M447.0 345.0L433.0 345.0L433.0 345.0L447.0 345.0Z" fill-rule="nonzero"/><path fill="#34a853" clip-path="url(#id_0)" d="M447.0 345.0L433.0 345.0L433.0 345.0L447.0 345.0Z" fill-rule="nonzero"/><path stroke="#000000" stroke-width="2.0" stroke-linecap="butt" stroke-opacity="0.0" clip-path="url(#id_0)" d="M468.0 320.0L454.0 320.0L454.0 320.0L468.0 320.0Z" fill-rule="nonzero"/><path fill="#34a853" clip-path="url(#id_0)" d="M468.0 320.0L454.0 320.0L454.0 320.0L468.0 320.0Z" fill-rule="nonzero"/><path stroke="#000000" stroke-width="2.0" stroke-linecap="butt" stroke-opacity="0.0" clip-path="url(#id_0)" d="M490.0 345.0L476.0 345.0L476.0 258.0C476.0 256.89542 476.89542 256.0 478.0 256.0L488.0 256.0C489.10458 256.0 490.0 256.89542 490.0 258.0Z" fill-rule="nonzero"/><path fill="#34a853" clip-path="url(#id_0)" d="M490.0 345.0L476.0 345.0L476.0 258.0C476.0 256.89542 476.89542 256.0 478.0 256.0L488.0 256.0C489.10458 256.0 490.0 256.89542 490.0 258.0Z" fill-rule="nonzero"/><path stroke="#000000" stroke-width="2.0" stroke-linecap="butt" stroke-opacity="0.0" clip-path="url(#id_0)" d="M511.0 345.0L497.0 345.0L497.0 345.0L511.0 345.0Z" fill-rule="nonzero"/><path fill="#34a853" clip-path="url(#id_0)" d="M511.0 345.0L497.0 345.0L497.0 345.0L511.0 345.0Z" fill-rule="nonzero"/><path stroke="#000000" stroke-width="2.0" stroke-linecap="butt" stroke-opacity="0.0" clip-path="url(#id_0)" d="M532.0 345.0L518.0 345.0L518.0 345.0L532.0 345.0Z" fill-rule="nonzero"/><path fill="#34a853" clip-path="url(#id_0)" d="M532.0 345.0L518.0 345.0L518.0 345.0L532.0 345.0Z" fill-rule="nonzero"/><path stroke="#000000" stroke-width="2.0" stroke-linecap="butt" stroke-opacity="0.0" clip-path="url(#id_0)" d="M553.0 26.0L539.0 26.0L539.0 26.0L553.0 26.0Z" fill-rule="nonzero"/><path fill="#34a853" clip-path="url(#id_0)" d="M553.0 26.0L539.0 26.0L539.0 26.0L553.0 26.0Z" fill-rule="nonzero"/><path stroke="#000000" stroke-width="2.0" stroke-linecap="butt" stroke-opacity="0.0" clip-path="url(#id_0)" d="M574.0 345.0L560.0 345.0L560.0 156.0C560.0 154.89543 560.89545 154.0 562.0 154.0L572.0 154.0C573.10455 154.0 574.0 154.89543 574.0 156.0Z" fill-rule="nonzero"/><path fill="#34a853" clip-path="url(#id_0)" d="M574.0 345.0L560.0 345.0L560.0 156.0C560.0 154.89543 560.89545 154.0 562.0 154.0L572.0 154.0C573.10455 154.0 574.0 154.89543 574.0 156.0Z" fill-rule="nonzero"/><path fill="#666666" d="M27.05 345.21564Q27.05 343.6844 27.3625 342.7625Q27.675 341.825 28.284374 341.325Q28.909374 340.825 29.846874 340.825Q30.534374 340.825 31.05 341.10626Q31.58125 341.3875 31.925 341.91876Q32.26875 342.4344 32.45625 343.1844Q32.64375 343.9344 32.64375 345.21564Q32.64375 346.73126 32.33125 347.65314Q32.034374 348.575 31.409374 349.09064Q30.8 349.59064 29.846874 349.59064Q28.6125 349.59064 27.89375 348.7Q27.05 347.6375 27.05 345.21564ZM28.128124 345.21564Q28.128124 347.325 28.628124 348.02814Q29.128124 348.73126 29.846874 348.73126Q30.58125 348.73126 31.065624 348.02814Q31.565624 347.325 31.565624 345.21564Q31.565624 343.09064 31.065624 342.40314Q30.58125 341.7 29.83125 341.7Q29.1125 341.7 28.675 342.3094Q28.128124 343.09064 28.128124 345.21564ZM34.346874 349.45L34.346874 340.85626L35.409374 340.85626L35.409374 345.7625L37.89375 343.23126L39.26875 343.23126L36.878124 345.52814L39.503124 349.45L38.20625 349.45L36.14375 346.2625L35.409374 346.98126L35.409374 349.45L34.346874 349.45Z" fill-rule="nonzero"/><path fill="#666666" d="M27.05 283.22L28.159374 283.12625Q28.284374 283.93875 28.721874 284.345Q29.175 284.75125 29.815624 284.75125Q30.565624 284.75125 31.096874 284.17313Q31.628124 283.595 31.628124 282.6575Q31.628124 281.75125 31.1125 281.23563Q30.6125 280.70438 29.784374 280.70438Q29.284374 280.70438 28.8625 280.93875Q28.45625 281.17313 28.221874 281.5325L27.2375 281.4075L28.065624 277.00125L32.346874 277.00125L32.346874 278.00125L28.909374 278.00125L28.45625 280.31375Q29.221874 279.76688 30.065624 279.76688Q31.190624 279.76688 31.95625 280.54813Q32.7375 281.32938 32.7375 282.56375Q32.7375 283.72 32.065624 284.57938Q31.2375 285.61063 29.815624 285.61063Q28.64375 285.61063 27.89375 284.95438Q27.159374 284.29813 27.05 283.22ZM34.346874 285.47L34.346874 276.87625L35.409374 276.87625L35.409374 281.7825L37.89375 279.25125L39.26875 279.25125L36.878124 281.54813L39.503124 285.47L38.20625 285.47L36.14375 282.2825L35.409374 283.00125L35.409374 285.47L34.346874 285.47Z" fill-rule="nonzero"/><path fill="#666666" d="M24.01875 221.49L22.971874 221.49L22.971874 214.77126Q22.58125 215.13063 21.95625 215.50563Q21.346874 215.865 20.8625 216.03688L20.8625 215.02126Q21.7375 214.59938 22.39375 214.02126Q23.065624 213.4275 23.346874 212.865L24.01875 212.865L24.01875 221.49ZM27.05 217.25563Q27.05 215.72438 27.3625 214.8025Q27.675 213.865 28.284374 213.365Q28.909374 212.865 29.846874 212.865Q30.534374 212.865 31.05 213.14626Q31.58125 213.4275 31.925 213.95876Q32.26875 214.47438 32.45625 215.22438Q32.64375 215.97438 32.64375 217.25563Q32.64375 218.77126 32.33125 219.69313Q32.034374 220.615 31.409374 221.13063Q30.8 221.63063 29.846874 221.63063Q28.6125 221.63063 27.89375 220.74Q27.05 219.6775 27.05 217.25563ZM28.128124 217.25563Q28.128124 219.365 28.628124 220.06813Q29.128124 220.77126 29.846874 220.77126Q30.58125 220.77126 31.065624 220.06813Q31.565624 219.365 31.565624 217.25563Q31.565624 215.13063 31.065624 214.44313Q30.58125 213.74 29.83125 213.74Q29.1125 213.74 28.675 214.34938Q28.128124 215.13063 28.128124 217.25563ZM34.346874 221.49L34.346874 212.89626L35.409374 212.89626L35.409374 217.8025L37.89375 215.27126L39.26875 215.27126L36.878124 217.56813L39.503124 221.49L38.20625 221.49L36.14375 218.3025L35.409374 219.02126L35.409374 221.49L34.346874 221.49Z" fill-rule="nonzero"/><path fill="#666666" d="M24.01875 157.51L22.971874 157.51L22.971874 150.79124Q22.58125 151.15062 21.95625 151.52562Q21.346874 151.885 20.8625 152.05687L20.8625 151.04124Q21.7375 150.61937 22.39375 150.04124Q23.065624 149.4475 23.346874 148.885L24.01875 148.885L24.01875 157.51ZM27.05 155.26L28.159374 155.16624Q28.284374 155.97874 28.721874 156.385Q29.175 156.79124 29.815624 156.79124Q30.565624 156.79124 31.096874 156.21312Q31.628124 155.635 31.628124 154.6975Q31.628124 153.79124 31.1125 153.27562Q30.6125 152.74437 29.784374 152.74437Q29.284374 152.74437 28.8625 152.97874Q28.45625 153.21312 28.221874 153.5725L27.2375 153.4475L28.065624 149.04124L32.346874 149.04124L32.346874 150.04124L28.909374 150.04124L28.45625 152.35374Q29.221874 151.80687 30.065624 151.80687Q31.190624 151.80687 31.95625 152.58812Q32.7375 153.36937 32.7375 154.60374Q32.7375 155.76 32.065624 156.61937Q31.2375 157.65062 29.815624 157.65062Q28.64375 157.65062 27.89375 156.99437Q27.159374 156.33812 27.05 155.26ZM34.346874 157.51L34.346874 148.91624L35.409374 148.91624L35.409374 153.8225L37.89375 151.29124L39.26875 151.29124L36.878124 153.58812L39.503124 157.51L38.20625 157.51L36.14375 154.3225L35.409374 155.04124L35.409374 157.51L34.346874 157.51Z" fill-rule="nonzero"/><path fill="#666666" d="M25.596874 92.51437L25.596874 93.53L19.909374 93.53Q19.909374 93.155 20.034374 92.79562Q20.253124 92.2175 20.721874 91.655Q21.20625 91.0925 22.1125 90.35812Q23.51875 89.20187 24.003124 88.53Q24.503124 87.85812 24.503124 87.26437Q24.503124 86.63937 24.05 86.2175Q23.596874 85.78 22.878124 85.78Q22.1125 85.78 21.659374 86.23312Q21.20625 86.68625 21.190624 87.49875L20.1125 87.38937Q20.221874 86.17062 20.940624 85.54562Q21.675 84.905 22.909374 84.905Q24.14375 84.905 24.8625 85.5925Q25.58125 86.28 25.58125 87.29562Q25.58125 87.81125 25.3625 88.31125Q25.159374 88.79562 24.659374 89.35812Q24.175 89.905 23.05 90.85812Q22.096874 91.655 21.815624 91.95187Q21.55 92.23312 21.378124 92.51437L25.596874 92.51437ZM27.05 89.29562Q27.05 87.76437 27.3625 86.8425Q27.675 85.905 28.284374 85.405Q28.909374 84.905 29.846874 84.905Q30.534374 84.905 31.05 85.18625Q31.58125 85.4675 31.925 85.99875Q32.26875 86.51437 32.45625 87.26437Q32.64375 88.01437 32.64375 89.29562Q32.64375 90.81125 32.33125 91.73312Q32.034374 92.655 31.409374 93.17062Q30.8 93.67062 29.846874 93.67062Q28.6125 93.67062 27.89375 92.78Q27.05 91.7175 27.05 89.29562ZM28.128124 89.29562Q28.128124 91.405 28.628124 92.10812Q29.128124 92.81125 29.846874 92.81125Q30.58125 92.81125 31.065624 92.10812Q31.565624 91.405 31.565624 89.29562Q31.565624 87.17062 31.065624 86.48312Q30.58125 85.78 29.83125 85.78Q29.1125 85.78 28.675 86.38937Q28.128124 87.17062 28.128124 89.29562ZM34.346874 93.53L34.346874 84.93625L35.409374 84.93625L35.409374 89.8425L37.89375 87.31125L39.26875 87.31125L36.878124 89.60812L39.503124 93.53L38.20625 93.53L36.14375 90.3425L35.409374 91.06125L35.409374 93.53L34.346874 93.53Z" fill-rule="nonzero"/><path fill="#666666" d="M25.596874 28.534374L25.596874 29.55L19.909374 29.55Q19.909374 29.175 20.034374 28.815624Q20.253124 28.2375 20.721874 27.675Q21.20625 27.1125 22.1125 26.378124Q23.51875 25.221874 24.003124 24.55Q24.503124 23.878124 24.503124 23.284374Q24.503124 22.659374 24.05 22.2375Q23.596874 21.8 22.878124 21.8Q22.1125 21.8 21.659374 22.253124Q21.20625 22.70625 21.190624 23.51875L20.1125 23.409374Q20.221874 22.190624 20.940624 21.565624Q21.675 20.925 22.909374 20.925Q24.14375 20.925 24.8625 21.6125Q25.58125 22.3 25.58125 23.315624Q25.58125 23.83125 25.3625 24.33125Q25.159374 24.815624 24.659374 25.378124Q24.175 25.925 23.05 26.878124Q22.096874 27.675 21.815624 27.971874Q21.55 28.253124 21.378124 28.534374L25.596874 28.534374ZM27.05 27.3L28.159374 27.20625Q28.284374 28.01875 28.721874 28.425Q29.175 28.83125 29.815624 28.83125Q30.565624 28.83125 31.096874 28.253124Q31.628124 27.675 31.628124 26.7375Q31.628124 25.83125 31.1125 25.315624Q30.6125 24.784374 29.784374 24.784374Q29.284374 24.784374 28.8625 25.01875Q28.45625 25.253124 28.221874 25.6125L27.2375 25.4875L28.065624 21.08125L32.346874 21.08125L32.346874 22.08125L28.909374 22.08125L28.45625 24.39375Q29.221874 23.846874 30.065624 23.846874Q31.190624 23.846874 31.95625 24.628124Q32.7375 25.409374 32.7375 26.64375Q32.7375 27.8 32.065624 28.659374Q31.2375 29.690624 29.815624 29.690624Q28.64375 29.690624 27.89375 29.034374Q27.159374 28.378124 27.05 27.3ZM34.346874 29.55L34.346874 20.95625L35.409374 20.95625L35.409374 25.8625L37.89375 23.33125L39.26875 23.33125L36.878124 25.628124L39.503124 29.55L38.20625 29.55L36.14375 26.3625L35.409374 27.08125L35.409374 29.55L34.346874 29.55Z" fill-rule="nonzero"/></svg>